<svg width="34" height="12" viewBox="0 0 34 12" fill="none" xmlns="http://www.w3.org/2000/svg">
<path d="M10.582 1.62402C10.5352 1.65332 10.4854 1.6709 10.4326 1.67676C10.3799 1.68262 10.3242 1.69141 10.2656 1.70312C10.2129 1.70898 10.1631 1.7207 10.1162 1.73828C10.0693 1.75586 10.0342 1.78809 10.0107 1.83496C9.95215 1.77637 9.8877 1.72656 9.81738 1.68555C9.74707 1.64453 9.67676 1.60059 9.60645 1.55371C9.54785 1.57129 9.48926 1.59473 9.43066 1.62402C9.37207 1.65332 9.31348 1.66797 9.25488 1.66797C9.21387 1.66797 9.17285 1.65332 9.13184 1.62402C9.08496 1.65918 9.0293 1.68848 8.96484 1.71191C8.90625 1.72949 8.8418 1.74707 8.77148 1.76465C8.70703 1.78223 8.64551 1.80566 8.58691 1.83496C8.53418 1.86426 8.49609 1.9082 8.47266 1.9668C8.46094 1.9375 8.43164 1.92871 8.38477 1.94043C8.34375 1.95215 8.32031 1.9375 8.31445 1.89648C8.12695 1.96094 7.93652 2.0166 7.74316 2.06348C7.5498 2.11035 7.35645 2.16016 7.16309 2.21289C6.96973 2.26562 6.7793 2.32422 6.5918 2.38867C6.4043 2.45312 6.22266 2.53223 6.04688 2.62598C6.04102 2.63184 6.03809 2.64062 6.03809 2.65234C6.03809 2.71094 6.04688 2.7666 6.06445 2.81934C6.08203 2.87207 6.09668 2.92188 6.1084 2.96875C6.00293 3.32617 5.93262 3.68945 5.89746 4.05859C5.8623 4.42773 5.81543 4.79102 5.75684 5.14844V5.18359C5.75684 5.21289 5.76855 5.23633 5.79199 5.25391C5.81543 5.26562 5.82715 5.28906 5.82715 5.32422L5.81836 5.3418C5.78906 5.35938 5.76855 5.38574 5.75684 5.4209C5.74512 5.4502 5.73926 5.48242 5.73926 5.51758C5.73926 5.54102 5.74512 5.57617 5.75684 5.62305C5.65723 5.95703 5.58984 6.29688 5.55469 6.64258C5.52539 6.98828 5.4873 7.33398 5.44043 7.67969L5.36133 8.25977C5.34961 8.29492 5.33789 8.33008 5.32617 8.36523C5.32031 8.39453 5.31738 8.42676 5.31738 8.46191C5.31738 8.64941 5.3291 8.83398 5.35254 9.01562C5.38184 9.19141 5.39062 9.37305 5.37891 9.56055C5.43164 9.64258 5.45801 9.72168 5.45801 9.79785C5.45801 9.82715 5.45508 9.85645 5.44922 9.88574C5.44922 9.91504 5.44629 9.94434 5.44043 9.97363C5.5166 10.0498 5.60449 10.1025 5.7041 10.1318C5.80957 10.167 5.90332 10.2197 5.98535 10.29V10.3252C5.98535 10.3838 5.97656 10.4395 5.95898 10.4922C5.94141 10.5508 5.92676 10.6094 5.91504 10.668C5.90332 10.7148 5.88867 10.7822 5.87109 10.8701C5.85938 10.958 5.8418 11.0166 5.81836 11.0459C5.78906 11.0869 5.74512 11.1221 5.68652 11.1514C5.63379 11.1865 5.58105 11.2041 5.52832 11.2041C5.51074 11.2041 5.48438 11.1953 5.44922 11.1777C5.41992 11.1602 5.39648 11.1455 5.37891 11.1338C5.34961 11.1338 5.31152 11.1484 5.26465 11.1777C5.21777 11.207 5.1709 11.2217 5.12402 11.2217C5.10059 11.2217 5.08008 11.2188 5.0625 11.2129C5.04492 11.2129 5.02441 11.207 5.00098 11.1953C4.97754 11.1367 4.94238 11.084 4.89551 11.0371C4.85449 10.9961 4.80469 10.9551 4.74609 10.9141C4.75195 10.832 4.7373 10.7705 4.70215 10.7295C4.66699 10.6885 4.63184 10.6357 4.59668 10.5713C4.58496 10.4893 4.57324 10.3955 4.56152 10.29C4.55566 10.1846 4.51172 10.1084 4.42969 10.0615C4.45898 10.0205 4.47363 9.96484 4.47363 9.89453C4.47363 9.86523 4.46777 9.83301 4.45605 9.79785C4.4502 9.7627 4.43262 9.73633 4.40332 9.71875V9.70117C4.39746 9.67188 4.40625 9.65137 4.42969 9.63965C4.45898 9.62207 4.47363 9.59863 4.47363 9.56934V9.53418C4.43262 9.34668 4.41211 9.15039 4.41211 8.94531C4.41211 8.75195 4.41797 8.56152 4.42969 8.37402C4.44141 8.18066 4.44141 7.9873 4.42969 7.79395C4.46484 7.76465 4.49121 7.71777 4.50879 7.65332C4.53223 7.58887 4.5498 7.51855 4.56152 7.44238C4.57324 7.36621 4.5791 7.29297 4.5791 7.22266C4.58496 7.14648 4.59082 7.08496 4.59668 7.03809C4.62598 6.7041 4.67285 6.37598 4.7373 6.05371C4.80176 5.72559 4.83984 5.3916 4.85156 5.05176C4.88086 5.00488 4.89844 4.94336 4.9043 4.86719C4.91016 4.79102 4.91309 4.71191 4.91309 4.62988C4.91309 4.54199 4.91895 4.45703 4.93066 4.375C4.94238 4.29297 4.96582 4.22266 5.00098 4.16406C5.00098 4 5.01562 3.83594 5.04492 3.67188C5.07422 3.50195 5.08887 3.33203 5.08887 3.16211C5.08887 3.08008 5.08008 2.99512 5.0625 2.90723C5.00391 2.88379 4.95117 2.87207 4.9043 2.87207C4.83984 2.87207 4.77246 2.88672 4.70215 2.91602C4.6377 2.93945 4.59082 2.97754 4.56152 3.03027C4.43262 3.03613 4.30664 3.05664 4.18359 3.0918C4.06055 3.12695 3.9375 3.14453 3.81445 3.14453H3.72656C3.70312 3.14453 3.67676 3.1416 3.64746 3.13574C3.60645 3.15332 3.5625 3.16797 3.51562 3.17969C3.47461 3.19141 3.45703 3.22656 3.46289 3.28516C3.28125 3.30273 3.10254 3.34082 2.92676 3.39941C2.75684 3.45801 2.58691 3.52246 2.41699 3.59277C2.24707 3.65723 2.07715 3.71875 1.90723 3.77734C1.73145 3.83594 1.55273 3.87402 1.37109 3.8916C1.30664 3.9209 1.26562 3.98242 1.24805 4.07617C1.11914 4.06445 1.01074 4.03223 0.922852 3.97949C0.834961 3.92676 0.732422 3.87695 0.615234 3.83008C0.580078 3.70703 0.5625 3.58984 0.5625 3.47852C0.5625 3.33203 0.591797 3.19141 0.650391 3.05664C0.708984 2.92188 0.802734 2.82227 0.931641 2.75781C0.960938 2.76367 0.987305 2.76953 1.01074 2.77539C1.03418 2.77539 1.06055 2.77539 1.08984 2.77539C1.18359 2.77539 1.27734 2.75781 1.37109 2.72266C1.46484 2.6875 1.56152 2.66992 1.66113 2.66992C1.69043 2.66992 1.72266 2.67871 1.75781 2.69629C1.79883 2.67285 1.85156 2.65527 1.91602 2.64355C1.97461 2.62598 2.03027 2.61133 2.08301 2.59961C2.1416 2.58203 2.19434 2.55859 2.24121 2.5293C2.28809 2.5 2.31738 2.45898 2.3291 2.40625C2.3584 2.42969 2.39062 2.44434 2.42578 2.4502C2.46094 2.45605 2.49609 2.45898 2.53125 2.45898C2.60742 2.45898 2.68652 2.44434 2.76855 2.41504C2.85059 2.38574 2.91504 2.33887 2.96191 2.27441C3.00293 2.32129 3.06152 2.34473 3.1377 2.34473C3.21973 2.34473 3.29883 2.32422 3.375 2.2832C3.45703 2.23633 3.53613 2.21289 3.6123 2.21289C3.6709 2.21289 3.71484 2.2334 3.74414 2.27441C3.80859 2.22168 3.88477 2.18066 3.97266 2.15137C4.06055 2.12207 4.14844 2.0957 4.23633 2.07227C4.33008 2.04883 4.41504 2.02246 4.49121 1.99316C4.57324 1.96387 4.6377 1.92285 4.68457 1.87012C4.71387 1.87598 4.76074 1.87891 4.8252 1.87891C4.9248 1.87891 5.01855 1.86719 5.10645 1.84375C5.2002 1.81445 5.29395 1.78809 5.3877 1.76465L5.57227 1.74707C5.61914 1.74121 5.66016 1.72656 5.69531 1.70312C5.73633 1.67969 5.77734 1.65918 5.81836 1.6416C5.85938 1.62402 5.90039 1.60938 5.94141 1.59766C5.98828 1.58594 6.04395 1.58301 6.1084 1.58887C6.24902 1.5127 6.39844 1.4541 6.55664 1.41309C6.71484 1.37207 6.87598 1.33691 7.04004 1.30762C7.2041 1.27246 7.36523 1.23438 7.52344 1.19336C7.68164 1.14648 7.83105 1.0791 7.97168 0.991211H7.99805C8.11523 0.991211 8.22949 0.970703 8.34082 0.929688C8.45801 0.888672 8.56641 0.833008 8.66602 0.762695C8.68359 0.768555 8.70117 0.771484 8.71875 0.771484H8.78027C8.94434 0.771484 9.10254 0.748047 9.25488 0.701172C9.41309 0.654297 9.57715 0.630859 9.74707 0.630859C9.84668 0.630859 9.92578 0.645508 9.98438 0.674805C10.043 0.698242 10.0957 0.730469 10.1426 0.771484C10.1895 0.806641 10.2393 0.841797 10.292 0.876953C10.3447 0.912109 10.4121 0.938477 10.4941 0.956055C10.5469 1.05566 10.5732 1.16406 10.5732 1.28125C10.5732 1.39258 10.5762 1.50684 10.582 1.62402ZM19.1426 8.4707C19.1309 8.55859 19.0986 8.62598 19.0459 8.67285C18.999 8.71973 18.9434 8.76367 18.8789 8.80469C18.8496 8.79883 18.8203 8.7959 18.791 8.7959C18.7676 8.79004 18.7412 8.78711 18.7119 8.78711C18.5303 8.78125 18.3574 8.80469 18.1934 8.85742C18.0352 8.91016 17.8711 8.94824 17.7012 8.97168C17.6426 8.9834 17.5869 8.98926 17.5342 8.98926C17.4873 8.9834 17.4375 8.98633 17.3848 8.99805C17.1973 9.02734 16.998 9.05078 16.7871 9.06836C16.5762 9.08594 16.3652 9.10938 16.1543 9.13867C15.9434 9.16211 15.7354 9.19434 15.5303 9.23535C15.3311 9.27051 15.1436 9.32324 14.9678 9.39355C14.9502 9.38184 14.9326 9.37012 14.915 9.3584C14.8975 9.34082 14.877 9.33203 14.8535 9.33203C14.7949 9.33203 14.7393 9.34082 14.6865 9.3584C14.6338 9.37598 14.5811 9.38184 14.5283 9.37598C14.4697 9.41113 14.4053 9.4375 14.335 9.45508C14.2705 9.4668 14.2031 9.47852 14.1328 9.49023C14.0684 9.49609 14.0039 9.50781 13.9395 9.52539C13.875 9.54297 13.8135 9.5752 13.7549 9.62207C13.708 9.59863 13.6494 9.58691 13.5791 9.58691C13.5146 9.58105 13.4707 9.55762 13.4473 9.5166C13.3125 9.58105 13.1689 9.62207 13.0166 9.63965C12.8701 9.65723 12.7207 9.66309 12.5684 9.65723C12.4688 9.65137 12.3545 9.63672 12.2256 9.61328C12.0967 9.58984 11.9678 9.55762 11.8389 9.5166C11.71 9.46973 11.5898 9.41699 11.4785 9.3584C11.3672 9.29395 11.2822 9.21777 11.2236 9.12988C11.1826 9.07129 11.1533 9.00684 11.1357 8.93652C11.1182 8.86621 11.0771 8.81348 11.0127 8.77832C11.0303 8.64355 11.0508 8.51172 11.0742 8.38281C11.0977 8.25391 11.1211 8.12207 11.1445 7.9873C11.2617 7.8877 11.373 7.78223 11.4785 7.6709C11.584 7.55957 11.6836 7.44238 11.7773 7.31934C11.8887 7.2666 11.9912 7.20215 12.085 7.12598C12.1846 7.0498 12.2812 6.97363 12.375 6.89746C12.4746 6.81543 12.5713 6.73633 12.665 6.66016C12.7646 6.58398 12.8701 6.5166 12.9814 6.45801C12.999 6.41699 13.0225 6.38477 13.0518 6.36133C13.0869 6.33203 13.1221 6.30566 13.1572 6.28223C13.1924 6.25293 13.2246 6.22363 13.2539 6.19434C13.2832 6.15918 13.3037 6.11816 13.3154 6.07129C13.5205 5.94824 13.6992 5.79297 13.8516 5.60547C14.0039 5.41797 14.1035 5.20703 14.1504 4.97266C14.0508 4.89062 13.9365 4.83789 13.8076 4.81445C13.6846 4.78516 13.5557 4.76465 13.4209 4.75293C13.3037 4.74707 13.1807 4.74707 13.0518 4.75293C12.9287 4.75879 12.8027 4.75586 12.6738 4.74414C12.5449 4.78516 12.4102 4.81152 12.2695 4.82324C12.1348 4.83496 12 4.84668 11.8652 4.8584C11.7305 4.86426 11.5957 4.88184 11.4609 4.91113C11.332 4.93457 11.2061 4.98145 11.083 5.05176C11.0596 5.05176 11.0361 5.04883 11.0127 5.04297C10.9951 5.03711 10.9746 5.03418 10.9512 5.03418C10.7637 5.02832 10.5879 5.06641 10.4238 5.14844C10.2598 5.22461 10.0986 5.30078 9.94043 5.37695C9.92871 5.40039 9.92285 5.41797 9.92285 5.42969C9.92285 5.46484 9.92871 5.5 9.94043 5.53516C9.95801 5.56445 9.9668 5.59668 9.9668 5.63184C9.96094 5.6377 9.95801 5.64355 9.95801 5.64941C9.95801 5.65527 9.95508 5.66113 9.94922 5.66699C9.94336 5.69629 9.93457 5.72266 9.92285 5.74609C9.91699 5.76953 9.9082 5.7959 9.89648 5.8252C9.83203 6.0127 9.79688 6.19727 9.79102 6.37891C9.78516 6.53125 9.78516 6.68066 9.79102 6.82715C9.79688 6.97363 9.79688 7.12305 9.79102 7.27539C9.7793 7.46289 9.75 7.63867 9.70312 7.80273C9.73242 7.94336 9.75879 8.09277 9.78223 8.25098C9.80566 8.40332 9.83496 8.55566 9.87012 8.70801C9.90527 8.86035 9.94629 9.00977 9.99316 9.15625C10.0459 9.29688 10.1133 9.43164 10.1953 9.56055C10.1895 9.57227 10.1924 9.58105 10.2041 9.58691C10.2158 9.59277 10.2275 9.5957 10.2393 9.5957H10.3096C10.3389 9.5957 10.3506 9.60742 10.3447 9.63086C10.3564 9.64844 10.3652 9.66602 10.3711 9.68359C10.377 9.69531 10.3887 9.70703 10.4062 9.71875C10.418 9.73633 10.418 9.75977 10.4062 9.78906C10.4004 9.90625 10.3711 10.0146 10.3184 10.1143C10.2656 10.2139 10.2334 10.3223 10.2217 10.4395C10.1514 10.457 10.0869 10.4658 10.0283 10.4658C9.92871 10.46 9.84082 10.4307 9.76465 10.3779C9.68848 10.3311 9.61816 10.2725 9.55371 10.2021C9.48926 10.1318 9.42773 10.0615 9.36914 9.99121C9.31055 9.91504 9.24609 9.85059 9.17578 9.79785C9.13477 9.63379 9.09375 9.45215 9.05273 9.25293C9.01758 9.05371 8.95605 8.88379 8.86816 8.74316C8.8916 8.69043 8.90332 8.62598 8.90332 8.5498C8.90918 8.43262 8.89746 8.31836 8.86816 8.20703C8.84473 8.08984 8.83887 7.97266 8.85059 7.85547C8.85059 7.79102 8.85645 7.72656 8.86816 7.66211C8.88574 7.59766 8.89746 7.5332 8.90332 7.46875C8.90918 7.36914 8.89746 7.27246 8.86816 7.17871C8.84473 7.08496 8.83594 6.98828 8.8418 6.88867C8.84766 6.8418 8.85645 6.79785 8.86816 6.75684C8.88574 6.70996 8.90918 6.66895 8.93848 6.63379C8.90918 6.56348 8.90039 6.49609 8.91211 6.43164C8.91797 6.33203 8.92969 6.23828 8.94727 6.15039C8.96484 6.0625 8.97656 5.97461 8.98242 5.88672C8.98242 5.83984 8.97949 5.7959 8.97363 5.75488C8.96777 5.70801 8.95898 5.66406 8.94727 5.62305L8.86816 5.59668C8.83301 5.59668 8.79785 5.60547 8.7627 5.62305C8.7334 5.64062 8.70703 5.66113 8.68359 5.68457C8.66016 5.70801 8.63965 5.72852 8.62207 5.74609C8.60449 5.75781 8.58691 5.76367 8.56934 5.76367C8.55762 5.76367 8.54297 5.76367 8.52539 5.76367C8.51367 5.75781 8.50195 5.75488 8.49023 5.75488C8.47852 5.75488 8.45508 5.7666 8.41992 5.79004C8.39062 5.81348 8.35254 5.83984 8.30566 5.86914C8.26465 5.89258 8.22363 5.91895 8.18262 5.94824C8.1416 5.97168 8.10938 5.98633 8.08594 5.99219C8.02148 5.98047 7.96875 5.95996 7.92773 5.93066C7.89258 5.89551 7.85742 5.86328 7.82227 5.83398C7.79297 5.79883 7.76074 5.76953 7.72559 5.74609C7.69043 5.7168 7.64648 5.70508 7.59375 5.71094C7.57617 5.67578 7.56738 5.6377 7.56738 5.59668C7.56152 5.55566 7.56152 5.51465 7.56738 5.47363V5.33301C7.6084 5.25684 7.66406 5.19531 7.73438 5.14844C7.79883 5.0957 7.86914 5.05176 7.94531 5.0166L8.17383 4.91113C8.25 4.87598 8.32031 4.83203 8.38477 4.7793H8.46387C8.56934 4.78516 8.66016 4.76465 8.73633 4.71777C8.81836 4.6709 8.89453 4.61816 8.96484 4.55957C9.03516 4.49512 9.10547 4.43066 9.17578 4.36621C9.25195 4.30176 9.33398 4.25195 9.42188 4.2168C9.48633 4.24609 9.55371 4.27246 9.62402 4.2959C9.69434 4.31348 9.76758 4.3252 9.84375 4.33105C9.91992 4.33105 9.99902 4.31934 10.0811 4.2959C10.1631 4.27246 10.2275 4.22852 10.2744 4.16406C10.3037 4.17578 10.3271 4.18457 10.3447 4.19043C10.3682 4.19043 10.3945 4.19043 10.4238 4.19043C10.5117 4.19629 10.5996 4.18457 10.6875 4.15527C10.7754 4.12012 10.8604 4.0791 10.9424 4.03223C11.0596 4.03809 11.1738 4.03223 11.2852 4.01465C11.4023 3.99121 11.5166 3.96777 11.6279 3.94434C11.7451 3.9209 11.8594 3.90039 11.9707 3.88281C12.0879 3.85938 12.2051 3.85059 12.3223 3.85645C12.5156 3.8623 12.7061 3.84473 12.8936 3.80371C13.0811 3.7627 13.2715 3.74805 13.4648 3.75977C13.5996 3.76562 13.7314 3.77734 13.8604 3.79492C13.9951 3.80664 14.1299 3.80957 14.2646 3.80371C14.3408 3.83887 14.4082 3.87109 14.4668 3.90039C14.5312 3.92383 14.6104 3.92969 14.7041 3.91797C14.8916 4.07617 15.0615 4.26074 15.2139 4.47168V4.62109C15.208 4.75586 15.1846 4.8877 15.1436 5.0166C15.1025 5.14551 15.0527 5.27441 14.9941 5.40332C14.9414 5.52637 14.8828 5.64941 14.8184 5.77246C14.7539 5.88965 14.6924 6.00684 14.6338 6.12402C14.2529 6.46973 13.8721 6.8125 13.4912 7.15234C13.1104 7.49219 12.7178 7.82031 12.3135 8.13672C12.3018 8.19531 12.2842 8.24805 12.2607 8.29492C12.2432 8.3418 12.2314 8.3916 12.2256 8.44434C12.2256 8.47363 12.2285 8.49707 12.2344 8.51465C12.2754 8.52637 12.3105 8.5498 12.3398 8.58496C12.375 8.61426 12.3867 8.65527 12.375 8.70801H12.4541C12.4834 8.70801 12.498 8.71973 12.498 8.74316L12.6387 8.75195C12.8613 8.76367 13.084 8.75781 13.3066 8.73438C13.5293 8.71094 13.752 8.68457 13.9746 8.65527C14.2031 8.62598 14.4287 8.59961 14.6514 8.57617C14.874 8.54688 15.0967 8.5293 15.3193 8.52344C15.3721 8.50586 15.4277 8.49121 15.4863 8.47949C15.5449 8.46777 15.5977 8.44434 15.6445 8.40918H15.6709C15.7119 8.40918 15.7412 8.4209 15.7588 8.44434C15.7822 8.46777 15.8145 8.48242 15.8555 8.48828C15.8848 8.48828 15.9141 8.48242 15.9434 8.4707C15.9785 8.45898 16.0137 8.4502 16.0488 8.44434C16.1309 8.4209 16.2158 8.40625 16.3037 8.40039C16.3975 8.39453 16.4883 8.38574 16.5762 8.37402C16.916 8.34473 17.2529 8.32715 17.5869 8.32129C17.9209 8.30957 18.2549 8.26562 18.5889 8.18945C18.6182 8.23047 18.6592 8.25977 18.7119 8.27734C18.7646 8.28906 18.8203 8.30371 18.8789 8.32129C18.9375 8.33301 18.9902 8.34766 19.0371 8.36523C19.0898 8.38281 19.125 8.41797 19.1426 8.4707ZM18.5449 8.7959C18.5156 8.84277 18.4805 8.88672 18.4395 8.92773C18.3984 8.96289 18.3604 9.00098 18.3252 9.04199C18.2842 9.05957 18.2373 9.06836 18.1846 9.06836C18.1377 9.06836 18.0908 9.06836 18.0439 9.06836C18.0029 9.0625 17.9619 9.0625 17.9209 9.06836C17.8857 9.06836 17.8564 9.08008 17.833 9.10352C17.7861 9.0918 17.751 9.07129 17.7275 9.04199C17.7041 9.00684 17.6631 8.98633 17.6045 8.98047C17.5811 8.97461 17.5576 8.97461 17.5342 8.98047C17.4463 8.88086 17.3643 8.77539 17.2881 8.66406C17.2178 8.55273 17.1504 8.44727 17.0859 8.34766C17.0801 8.13086 17.0625 7.91113 17.0332 7.68848C17.0273 7.63574 17.0186 7.58301 17.0068 7.53027C16.9951 7.47754 16.9863 7.42773 16.9805 7.38086C16.9805 7.32227 16.9834 7.2666 16.9893 7.21387C17.001 7.15527 17.0098 7.10254 17.0156 7.05566C17.0391 6.88574 17.0654 6.71875 17.0947 6.55469C17.124 6.39062 17.1504 6.22363 17.1738 6.05371C17.1973 5.90137 17.209 5.74316 17.209 5.5791C17.209 5.40918 17.1826 5.25098 17.1299 5.10449L17.1211 5.06055C17.1328 5.01367 17.1445 4.97559 17.1562 4.94629C17.1738 4.91113 17.1855 4.87305 17.1914 4.83203C17.2031 4.76758 17.1885 4.7207 17.1475 4.69141C17.165 4.64453 17.1943 4.61523 17.2354 4.60352C17.2764 4.58594 17.2998 4.55078 17.3057 4.49805C17.3115 4.47461 17.3115 4.45117 17.3057 4.42773C17.3525 4.41016 17.3994 4.39551 17.4463 4.38379C17.499 4.36621 17.5488 4.36328 17.5957 4.375C17.6719 4.38672 17.7393 4.41309 17.7979 4.4541C17.8564 4.48926 17.9121 4.53027 17.9648 4.57715C18.0586 4.8584 18.0967 5.15723 18.0791 5.47363C18.0615 5.78418 18.0322 6.09766 17.9912 6.41406C17.9502 6.73047 17.9238 7.04102 17.9121 7.3457C17.9004 7.64453 17.9473 7.92285 18.0527 8.18066L18.0703 8.18945C18.0996 8.19531 18.123 8.18652 18.1406 8.16309C18.1582 8.13379 18.1816 8.12207 18.2109 8.12793C18.2344 8.13965 18.249 8.14551 18.2549 8.14551C18.2783 8.2627 18.3164 8.37402 18.3691 8.47949C18.4219 8.58496 18.4805 8.69043 18.5449 8.7959ZM26.2441 5.11328C26.2441 5.19531 26.2412 5.27734 26.2354 5.35938C26.2295 5.44141 26.2207 5.52344 26.209 5.60547C26.168 5.66406 26.127 5.7168 26.0859 5.76367C26.0508 5.80469 26.0273 5.85742 26.0156 5.92188C25.9512 5.96875 25.8779 6.0332 25.7959 6.11523C25.7197 6.19727 25.6875 6.2793 25.6992 6.36133H25.5762C25.5059 6.4668 25.4238 6.55762 25.3301 6.63379C25.2363 6.70996 25.1367 6.7832 25.0312 6.85352L24.7236 7.05566C24.624 7.12012 24.5303 7.19629 24.4424 7.28418C24.3955 7.29004 24.3574 7.29883 24.3281 7.31055C24.2988 7.32227 24.2607 7.3252 24.2139 7.31934C24.0322 7.43652 23.8418 7.53906 23.6426 7.62695C23.4492 7.71484 23.2529 7.80273 23.0537 7.89062C22.8604 7.97266 22.667 8.06055 22.4736 8.1543C22.2803 8.24805 22.0957 8.35645 21.9199 8.47949C21.9023 8.47363 21.8789 8.4707 21.8496 8.4707C21.7969 8.4707 21.7441 8.47949 21.6914 8.49707C21.6387 8.50879 21.5859 8.51465 21.5332 8.51465C21.5098 8.51465 21.4775 8.51172 21.4365 8.50586C21.4014 8.5 21.375 8.49121 21.3574 8.47949C21.3281 8.46191 21.3018 8.43555 21.2783 8.40039C21.2549 8.36523 21.2373 8.32715 21.2256 8.28613C21.2139 8.23926 21.2051 8.19531 21.1992 8.1543C21.1934 8.11328 21.1904 8.07812 21.1904 8.04883C21.1904 8.01367 21.1934 7.97559 21.1992 7.93457C21.2051 7.89355 21.2139 7.85547 21.2256 7.82031C21.3955 7.80859 21.5654 7.76465 21.7354 7.68848C21.9111 7.6123 22.0781 7.53906 22.2363 7.46875C22.2773 7.45117 22.3096 7.43066 22.333 7.40723C22.3623 7.37793 22.3916 7.35449 22.4209 7.33691C22.4502 7.31348 22.4824 7.29297 22.5176 7.27539C22.5527 7.25781 22.5967 7.24902 22.6494 7.24902H22.6758C23.0449 7.0791 23.4053 6.89453 23.7568 6.69531C24.1143 6.49609 24.4688 6.29395 24.8203 6.08887C24.8379 6.03613 24.8643 5.9834 24.8994 5.93066C24.9404 5.87793 24.9785 5.82812 25.0137 5.78125C25.0488 5.72852 25.0811 5.67578 25.1104 5.62305C25.1396 5.57031 25.1543 5.51758 25.1543 5.46484C25.1543 5.35938 25.1045 5.27148 25.0049 5.20117H24.9697C24.8994 5.20117 24.8379 5.19238 24.7852 5.1748C24.7324 5.15137 24.6826 5.13086 24.6357 5.11328C24.5889 5.08984 24.5361 5.07227 24.4775 5.06055C24.4189 5.04297 24.3516 5.03711 24.2754 5.04297C24.2461 5.01953 24.1992 4.99902 24.1348 4.98145C24.0703 4.96387 24.0176 4.95508 23.9766 4.95508C23.7656 4.95508 23.5576 4.96973 23.3525 4.99902C23.1475 5.02246 22.9424 5.03711 22.7373 5.04297C22.6846 5.07227 22.6348 5.09863 22.5879 5.12207C22.541 5.14551 22.4854 5.15723 22.4209 5.15723C22.3916 5.15723 22.3652 5.15723 22.3418 5.15723C22.3184 5.15137 22.292 5.14551 22.2627 5.13965C22.1514 5.18652 22.0254 5.22754 21.8848 5.2627C21.7441 5.29199 21.6035 5.33008 21.4629 5.37695C21.3281 5.41797 21.2021 5.4707 21.085 5.53516C20.9678 5.59961 20.877 5.6875 20.8125 5.79883C20.8125 5.82812 20.8184 5.85449 20.8301 5.87793C20.8418 5.89551 20.8477 5.91895 20.8477 5.94824V5.9834C20.8125 6.01855 20.7891 6.05957 20.7773 6.10645C20.7656 6.14746 20.7568 6.19141 20.751 6.23828C20.7451 6.2793 20.7363 6.32324 20.7246 6.37012C20.7188 6.41113 20.6982 6.45215 20.6631 6.49316C20.6865 6.58105 20.6982 6.67773 20.6982 6.7832C20.6982 6.90039 20.6895 7.01758 20.6719 7.13477C20.6602 7.25195 20.6543 7.36914 20.6543 7.48633C20.6543 7.59766 20.666 7.69727 20.6895 7.78516C20.6543 7.82031 20.6396 7.87305 20.6455 7.94336C20.6514 8.01367 20.6367 8.06641 20.6016 8.10156C20.6016 8.14844 20.6133 8.18066 20.6367 8.19824C20.666 8.21582 20.6836 8.24512 20.6895 8.28613C20.666 8.38574 20.6543 8.49414 20.6543 8.61133C20.6543 8.78125 20.6719 8.9541 20.707 9.12988C20.748 9.30566 20.7949 9.47852 20.8477 9.64844C20.9414 9.61914 21.041 9.5957 21.1465 9.57812C21.2578 9.55469 21.3633 9.54297 21.4629 9.54297C21.4805 9.54297 21.498 9.5459 21.5156 9.55176C21.5332 9.55176 21.5508 9.55176 21.5684 9.55176C21.5801 9.61621 21.6035 9.6748 21.6387 9.72754C21.6738 9.78027 21.7061 9.83887 21.7354 9.90332C21.7061 9.94434 21.6797 9.97656 21.6562 10C21.6387 10.0293 21.6299 10.0674 21.6299 10.1143C21.5479 10.1201 21.4805 10.1406 21.4277 10.1758C21.375 10.2168 21.3164 10.2607 21.252 10.3076H21.2168C21.1172 10.3076 21.0352 10.3252 20.9707 10.3604C20.9062 10.4014 20.833 10.4453 20.751 10.4922C20.6807 10.4629 20.6104 10.4482 20.54 10.4482C20.4639 10.4482 20.3877 10.4629 20.3115 10.4922C20.2178 10.4512 20.1416 10.3867 20.083 10.2988C20.0244 10.2168 19.9746 10.123 19.9336 10.0176C19.8926 9.91797 19.8545 9.81543 19.8193 9.70996C19.79 9.60449 19.7549 9.50781 19.7139 9.41992V9.2793C19.7139 9.14453 19.7021 9.01562 19.6787 8.89258C19.6611 8.76367 19.6523 8.63184 19.6523 8.49707C19.6523 8.44434 19.6553 8.38867 19.6611 8.33008C19.6729 8.27148 19.6904 8.21582 19.7139 8.16309C19.7021 8.11035 19.6963 8.06055 19.6963 8.01367V7.84668C19.6963 7.6709 19.7021 7.49512 19.7139 7.31934C19.7314 7.14355 19.7402 6.96777 19.7402 6.79199C19.7402 6.66309 19.7314 6.53125 19.7139 6.39648C19.6846 6.4082 19.6582 6.41992 19.6348 6.43164C19.6113 6.44336 19.585 6.44922 19.5557 6.44922C19.5264 6.44922 19.4971 6.44629 19.4678 6.44043C19.4443 6.43457 19.4209 6.42871 19.3975 6.42285C19.3389 6.37012 19.2979 6.30566 19.2744 6.22949C19.251 6.15332 19.2188 6.08301 19.1777 6.01855C19.1777 5.90723 19.1953 5.81641 19.2305 5.74609C19.2598 5.66992 19.2979 5.60254 19.3447 5.54395C19.3916 5.47949 19.4385 5.41797 19.4854 5.35938C19.5381 5.30078 19.582 5.22754 19.6172 5.13965H19.6523C19.7461 5.13965 19.8398 5.11035 19.9336 5.05176C20.0273 4.9873 20.1328 4.95508 20.25 4.95508C20.291 4.90234 20.3467 4.8584 20.417 4.82324C20.4873 4.78223 20.5605 4.75 20.6367 4.72656C20.7188 4.70312 20.7979 4.68848 20.874 4.68262C20.9561 4.6709 21.0322 4.66504 21.1025 4.66504C21.126 4.62402 21.1611 4.59766 21.208 4.58594C21.2549 4.56836 21.3018 4.55371 21.3486 4.54199C21.4014 4.52441 21.4482 4.50977 21.4893 4.49805C21.5361 4.48047 21.5742 4.45117 21.6035 4.41016C21.6504 4.42188 21.6943 4.42773 21.7354 4.42773C21.8115 4.42773 21.8848 4.41895 21.9551 4.40137C22.0254 4.37793 22.0957 4.35449 22.166 4.33105C22.2363 4.30176 22.3066 4.27539 22.377 4.25195C22.4531 4.22852 22.5322 4.2168 22.6143 4.2168C22.6436 4.2168 22.6729 4.21973 22.7021 4.22559C22.7314 4.22559 22.7607 4.22559 22.79 4.22559C22.8369 4.22559 22.8633 4.20801 22.8691 4.17285C22.8809 4.1377 22.9014 4.11133 22.9307 4.09375C22.9482 4.09961 22.9805 4.10254 23.0273 4.10254C23.1445 4.10254 23.2588 4.09375 23.3701 4.07617C23.4814 4.05273 23.5957 4.04102 23.7129 4.04102C23.7656 4.04102 23.8184 4.04395 23.8711 4.0498C23.9238 4.05566 23.9766 4.07031 24.0293 4.09375C24.041 4.07617 24.0527 4.06152 24.0645 4.0498C24.0762 4.03809 24.085 4.02344 24.0908 4.00586C24.3779 4.02344 24.6475 4.08203 24.8994 4.18164C25.1572 4.28125 25.4238 4.36914 25.6992 4.44531C25.7344 4.49805 25.7754 4.54492 25.8223 4.58594L25.9717 4.70898C26.0244 4.75 26.0742 4.79102 26.1211 4.83203C26.168 4.87305 26.209 4.92285 26.2441 4.98145V5.11328ZM33.6357 9.6748C33.6357 9.7334 33.6328 9.77734 33.627 9.80664C33.5977 9.81836 33.5742 9.83594 33.5566 9.85938C33.5391 9.87695 33.5098 9.88281 33.4688 9.87695C33.457 9.96484 33.4277 10.0381 33.3809 10.0967C33.334 10.1553 33.2842 10.208 33.2314 10.2549C33.1846 10.3076 33.1377 10.3604 33.0908 10.4131C33.0439 10.4717 33.0146 10.5449 33.0029 10.6328C32.915 10.6797 32.8271 10.7412 32.7393 10.8174C32.6572 10.8994 32.584 10.9551 32.5195 10.9844C32.4727 11.0078 32.4229 11.0254 32.3701 11.0371C32.3174 11.0547 32.2646 11.0752 32.2119 11.0986C32.042 11.1748 31.8662 11.2539 31.6846 11.3359C31.5088 11.418 31.3242 11.459 31.1309 11.459H31.0693C31.0459 11.4824 31.0166 11.4971 30.9814 11.5029C30.9463 11.5146 30.9111 11.5234 30.876 11.5293C30.8408 11.5352 30.8057 11.5439 30.7705 11.5557C30.7354 11.5674 30.709 11.585 30.6914 11.6084C30.627 11.585 30.5566 11.5732 30.4805 11.5732H30.4189C30.3193 11.5967 30.2256 11.6143 30.1377 11.626C30.0498 11.6377 29.9561 11.6436 29.8564 11.6436C29.6807 11.6436 29.5049 11.6318 29.3291 11.6084C29.1533 11.585 28.9775 11.5645 28.8018 11.5469C28.6904 11.459 28.5996 11.3477 28.5293 11.2129C28.459 11.084 28.4238 10.9463 28.4238 10.7998C28.4238 10.6885 28.4473 10.583 28.4941 10.4834C28.541 10.3896 28.6025 10.3047 28.6787 10.2285H28.7051C28.7578 10.2285 28.8105 10.2168 28.8633 10.1934C28.9219 10.1699 28.9775 10.1582 29.0303 10.1582C29.0889 10.1582 29.1357 10.1816 29.1709 10.2285C29.2119 10.2754 29.2412 10.3311 29.2588 10.3955C29.2822 10.46 29.2969 10.5244 29.3027 10.5889C29.3086 10.6592 29.3115 10.7148 29.3115 10.7559C29.376 10.7852 29.4434 10.8027 29.5137 10.8086C29.5898 10.8145 29.666 10.8174 29.7422 10.8174C29.8184 10.8174 29.9033 10.8115 29.9971 10.7998C30.0908 10.7939 30.1846 10.7793 30.2783 10.7559C30.3779 10.7383 30.4717 10.7148 30.5596 10.6855C30.6533 10.6562 30.7324 10.6182 30.7969 10.5713C31.1191 10.542 31.4033 10.4688 31.6494 10.3516C31.8955 10.2344 32.1562 10.0967 32.4316 9.93848C32.4434 9.87402 32.4668 9.82422 32.502 9.78906C32.543 9.74805 32.5635 9.68945 32.5635 9.61328C32.5635 9.60156 32.5605 9.58984 32.5547 9.57812C32.5547 9.56055 32.5547 9.5459 32.5547 9.53418C32.4375 9.3877 32.3145 9.25879 32.1855 9.14746C32.0625 9.03613 31.9014 8.96289 31.7021 8.92773C31.6787 8.875 31.6406 8.83691 31.5879 8.81348C31.5352 8.78418 31.4795 8.75781 31.4209 8.73438C31.3623 8.71094 31.3066 8.6875 31.2539 8.66406C31.2012 8.63477 31.1631 8.58789 31.1396 8.52344C30.9814 8.49414 30.8174 8.45898 30.6475 8.41797C30.4834 8.37109 30.3428 8.28906 30.2256 8.17188C30.1318 8.16602 30.041 8.14844 29.9531 8.11914C29.8711 8.08398 29.7891 8.05176 29.707 8.02246C29.625 7.9873 29.54 7.95801 29.4521 7.93457C29.3643 7.90527 29.2734 7.89062 29.1797 7.89062C29.1562 7.84961 29.124 7.81738 29.083 7.79395C29.042 7.77051 28.9951 7.75 28.9424 7.73242C28.8955 7.71484 28.8486 7.69727 28.8018 7.67969C28.7607 7.65625 28.7285 7.62402 28.7051 7.58301C28.6816 7.58887 28.6641 7.60059 28.6523 7.61816C28.6406 7.63574 28.6201 7.64453 28.5908 7.64453H28.5557C28.5439 7.60938 28.5205 7.58594 28.4854 7.57422C28.4502 7.55664 28.4297 7.52441 28.4238 7.47754C28.3184 7.47168 28.2217 7.45117 28.1338 7.41602C28.0518 7.38086 27.9727 7.34277 27.8965 7.30176C27.8262 7.25488 27.7529 7.21094 27.6768 7.16992C27.6006 7.12891 27.5156 7.09668 27.4219 7.07324C27.3633 7.02637 27.3076 6.97656 27.2549 6.92383C27.208 6.86523 27.1465 6.83594 27.0703 6.83594C27.0527 6.83594 27.0205 6.8418 26.9736 6.85352C26.9619 6.74805 26.918 6.6748 26.8418 6.63379C26.7656 6.58691 26.6836 6.5459 26.5957 6.51074C26.5371 6.3584 26.458 6.22363 26.3584 6.10645C26.2588 5.98926 26.1504 5.88086 26.0332 5.78125C26.0449 5.74609 26.0508 5.71973 26.0508 5.70215C26.0508 5.64355 26.0361 5.59375 26.0068 5.55273C25.9775 5.50586 25.9453 5.46777 25.9102 5.43848C25.8281 5.1748 25.7871 4.91699 25.7871 4.66504C25.7871 4.31348 25.8662 3.98828 26.0244 3.68945C26.1768 3.38477 26.4199 3.15625 26.7539 3.00391C26.7598 2.95703 26.7744 2.91602 26.7979 2.88086C26.8271 2.8457 26.8447 2.80469 26.8506 2.75781C26.9033 2.75781 26.9443 2.74609 26.9736 2.72266C27.0029 2.69922 27.0293 2.67578 27.0527 2.65234C27.082 2.62305 27.1113 2.59668 27.1406 2.57324C27.1699 2.5498 27.208 2.53516 27.2549 2.5293C27.4775 2.33594 27.7148 2.18066 27.9668 2.06348C28.2188 1.94043 28.4766 1.81445 28.7402 1.68555C28.793 1.66211 28.8369 1.61816 28.8721 1.55371H28.9248C28.9834 1.55371 29.0273 1.54199 29.0566 1.51855C29.0918 1.48926 29.1416 1.48047 29.2061 1.49219C29.2295 1.45703 29.2588 1.43359 29.2939 1.42188C29.335 1.41016 29.373 1.40137 29.4082 1.39551C29.4492 1.38379 29.4873 1.36914 29.5225 1.35156C29.5576 1.33398 29.5811 1.30762 29.5928 1.27246H29.6543C29.7539 1.27246 29.8506 1.25781 29.9443 1.22852C30.0381 1.19336 30.1318 1.15527 30.2256 1.11426H30.2871C30.4043 1.11426 30.5127 1.09375 30.6123 1.05273C30.7178 1.00586 30.8291 0.973633 30.9463 0.956055C30.9932 0.944336 31.04 0.941406 31.0869 0.947266C31.1338 0.953125 31.1807 0.956055 31.2275 0.956055C31.2568 0.956055 31.292 0.953125 31.333 0.947266C31.374 0.941406 31.4033 0.923828 31.4209 0.894531H31.4385C31.4736 0.894531 31.4941 0.90625 31.5 0.929688C31.5059 0.953125 31.5234 0.964844 31.5527 0.964844C31.5938 0.964844 31.6348 0.958984 31.6758 0.947266C31.7168 0.935547 31.7578 0.929688 31.7988 0.929688C31.9746 0.929688 32.1475 0.947266 32.3174 0.982422C32.4932 1.01758 32.666 1.0498 32.8359 1.0791C32.8477 1.14941 32.877 1.19922 32.9238 1.22852C32.9766 1.25781 33.0322 1.28418 33.0908 1.30762V1.34277C33.0908 1.38965 33.1025 1.42773 33.126 1.45703C33.1025 1.53906 33.0615 1.60059 33.0029 1.6416C32.9443 1.68262 32.8799 1.71777 32.8096 1.74707C32.8389 1.77051 32.8564 1.80273 32.8623 1.84375C32.8682 1.88477 32.8711 1.92285 32.8711 1.95801V2.06348L32.8271 2.05469C32.7334 2.05469 32.6865 2.09863 32.6865 2.18652C32.6104 2.13965 32.5254 2.11035 32.4316 2.09863C32.3438 2.08691 32.2559 2.08105 32.168 2.08105C32.0508 2.08105 31.9277 2.08691 31.7988 2.09863C31.6699 2.10449 31.5439 2.10156 31.4209 2.08984C31.374 2.14844 31.3154 2.19238 31.2451 2.22168C31.1748 2.24512 31.1045 2.25684 31.0342 2.25684C30.958 2.25684 30.8848 2.24219 30.8145 2.21289C30.7441 2.17773 30.6943 2.12793 30.665 2.06348C30.6357 2.05176 30.6094 2.0459 30.5859 2.0459H30.5068C30.4131 2.0459 30.3193 2.05762 30.2256 2.08105C30.1377 2.09863 30.0469 2.12207 29.9531 2.15137C29.8594 2.1748 29.7656 2.20117 29.6719 2.23047C29.584 2.25391 29.4932 2.26855 29.3994 2.27441C29.3643 2.32129 29.3174 2.35352 29.2588 2.37109C29.2002 2.38867 29.1533 2.4209 29.1182 2.46777C28.9951 2.49121 28.8838 2.53223 28.7842 2.59082C28.6846 2.64355 28.5879 2.70215 28.4941 2.7666L28.2217 2.95117C28.1338 3.00977 28.0342 3.05957 27.9229 3.10059C27.8408 3.18848 27.7646 3.25879 27.6943 3.31152C27.624 3.36426 27.5332 3.41113 27.4219 3.45215C27.3516 3.47559 27.3105 3.51074 27.2988 3.55762C27.293 3.60449 27.2695 3.65137 27.2285 3.69824C27.1934 3.73926 27.1494 3.77148 27.0967 3.79492C27.0498 3.8125 27.0088 3.84473 26.9736 3.8916C26.9443 3.93262 26.9209 3.98242 26.9033 4.04102C26.8916 4.09375 26.877 4.14648 26.8594 4.19922C26.8418 4.25195 26.8213 4.30469 26.7979 4.35742C26.7744 4.4043 26.7393 4.44531 26.6924 4.48047C26.6924 4.50391 26.6895 4.52734 26.6836 4.55078C26.6836 4.57422 26.6836 4.59473 26.6836 4.6123C26.6836 4.69434 26.6924 4.7793 26.71 4.86719C26.7334 4.94922 26.748 5.03125 26.7539 5.11328C26.8711 5.31836 27.0088 5.50586 27.167 5.67578C27.3252 5.83984 27.4951 5.99219 27.6768 6.13281C27.8584 6.27344 28.0459 6.40527 28.2393 6.52832C28.4385 6.65137 28.6348 6.77148 28.8281 6.88867C28.8984 6.88281 28.9629 6.8916 29.0215 6.91504C29.0801 6.93262 29.1416 6.94434 29.2061 6.9502C29.2764 7.00293 29.3584 7.04395 29.4521 7.07324L29.7334 7.16113C29.8271 7.19043 29.918 7.22559 30.0059 7.2666C30.0938 7.30176 30.167 7.35156 30.2256 7.41602C30.2549 7.42188 30.2812 7.43066 30.3047 7.44238C30.3281 7.44824 30.3545 7.45117 30.3838 7.45117C30.4189 7.45117 30.4395 7.43945 30.4453 7.41602C30.709 7.51562 30.9668 7.62695 31.2188 7.75C31.4707 7.86719 31.7373 7.95801 32.0186 8.02246C32.1299 8.11621 32.2529 8.19824 32.3877 8.26855C32.5225 8.33887 32.6572 8.41211 32.792 8.48828C32.9268 8.55859 33.0557 8.6377 33.1787 8.72559C33.3018 8.80762 33.4102 8.90723 33.5039 9.02441C33.5156 9.13574 33.5391 9.24414 33.5742 9.34961C33.6152 9.44922 33.6357 9.55762 33.6357 9.6748Z" fill="#772121"/>
</svg>
